<svg xmlns="http://www.w3.org/2000/svg" height="301.59" width="135.62" viewBox="0 0 135.625 301.591"><rect rx="30.969" ry="30.729" height="298.6" width="132.62" y="1.351" x="1.097" fill="#fff"/><path fill="#c8102e" d="M88.26 9.865c-4.33 0-7.506.017-7.703.044l-.477.065 1.04.446c1.366.587 2.882 1.494 3.689 2.208.357.316.938 1.007 1.291 1.534.491.734.743.994 1.075 1.108 1.055.363 1.847 1.204 2.553 2.712.54 1.156.738 2.275.74 4.193.004 2.657-.604 5.048-2.054 8.077l-.66 1.378.475.541c1.01 1.146.802 2.2-1 5.077a35.02 35.02 0 0 0-1.07 1.812c-.483.94-.936 1.38-1.672 1.63l-.672.227-.872 1.67c-2.114 4.048-3.714 6.203-5.071 6.83-.255.118-.529.299-.609.402-.24.308-.44 1.132-.436 1.793.01 1.166.086 1.243 2.34 2.348 2.309 1.13 4.053 2.149 5.166 3.015.707.55.763.63.763 1.091 0 .408.062.536.344.71a37.376 37.376 0 0 1 2.604 1.745c.488.36 1.64 1.155 2.563 1.769 2.143 1.426 3.288 2.352 4.618 3.734 4.181 4.343 6.482 10.705 7.116 19.67.07.997.128 3.344.129 5.216v3.403l.432 1.722c.443 1.77.894 4.116 1.571 8.16.466 2.785.92 4.966 1.266 6.099.142.46.934 2.216 1.761 3.9 1.923 3.916 2.569 5.407 3.331 7.688.615 1.84 1.12 4.071 1.317 5.813.496 4.389 1.221 7.888 1.755 8.472.08.088.79.329 1.576.535.786.206 1.78.538 2.206.737.734.343.801.412 1.188 1.216l.41.852 1.438.726c.79.4 1.597.877 1.792 1.062.461.437.805 1.114.91 1.794.047.299.26.796.472 1.106.848 1.234 2.112 3.591 2.232 4.163.017.082.045-26.064.063-58.1.036-64.035.088-59.495-.715-62.609a23.758 23.758 0 0 0-3.309-7.32c-3.695-5.47-9.325-9.036-16.132-10.215-1.118-.193-2.504-.219-13.125-.242-1.632-.004-3.204-.006-4.648-.005zm-1.8 79.205c-.622 0-5.078 2.672-7.69 4.612-1.005.746-1.155.913-1.564 1.738-.631 1.273-3.02 7.258-5.522 13.836l-1.142 3-.046 1.407c-.043 1.297-.028 1.406.183 1.407.354.002 1.417.663 2.052 1.276 1.255 1.211 2.023 2.74 3.035 6.035.798 2.602 2.724 9.335 4.344 15.187l1.64 5.923.515 1.86-.73.702-.732.703.291 1.062.651 2.375c2.33 8.507 3.41 14.696 4.48 25.688.511 5.245.896 7.063 2.117 10.005a58.977 58.977 0 0 0 4.074 8.05c2.295 3.81 3.597 6.533 4.326 9.047.725 2.504 1.657 7.202 2.73 13.772 1.404 8.608 1.898 11.484 2.112 12.295.198.757.408 1.126 1.41 2.484 1.71 2.318 2.11 2.933 2.954 4.533 1.373 2.605 1.72 4.176 1.35 6.125-.11.585-.428 1.991-.705 3.125-1.324 5.411-1.572 7.996-1.008 10.513.07.311.355 1.952.634 3.646.562 3.414.926 4.847 1.411 5.556.426.623.842 1.893.839 2.563a3.19 3.19 0 0 1-.25 1.08c-.136.3-.248.631-.248.736 0 .106.56 1.886 1.244 3.956.685 2.07 1.387 4.27 1.561 4.888 1.381 4.91 1.352 8.89-.085 11.75-.987 1.964-2.203 3.28-4.422 4.785-.2.136-.143.148.39.085.83-.1 2.373-.491 3.719-.945 3.48-1.17 6.968-3.46 9.6-6.3 3.373-3.639 5.57-8.477 6.111-13.464.091-.833.132-18.289.131-55.625V164.13l-.4.875c-.513 1.122-1.734 3.174-2.427 4.08-1.992 2.6-4.73 4.817-7.702 6.233-6.993 3.332-15.132 2.631-21.47-1.849-1.516-1.072-3.823-3.379-4.902-4.903a21.274 21.274 0 0 1-1.96-21.224c2.405-5.222 7.213-9.474 12.611-11.155.722-.224 1.363-.452 1.424-.506.143-.126-.155-.867-1.808-4.488-1.315-2.888-3.048-6.47-5.891-12.196-1.558-3.14-1.79-3.815-2.712-7.93-.88-3.934-2.342-11.443-3.636-18.687-.615-3.439-.581-3.313-.886-3.313z"/><path fill="#1d428a" d="M51.709 9.82c-10.142.007-20.469.05-21.32.128-5.664.513-10.522 2.708-14.522 6.559-3.864 3.721-6.106 8-7.107 13.565-.199 1.11-.215 8.77-.255 120.69-.028 81.186 0 120.24.087 121.81.353 6.31 2.569 11.325 6.936 15.694 4.122 4.123 9.307 6.51 15.046 6.924 1.702.123 71.774.158 71.77.035-.003-.05-.345-.316-.762-.59-1.578-1.042-2.838-2.766-3.299-4.516-.56-2.126-.529-4.535.13-9.985.578-4.768.93-8.556 1.015-10.88l.083-2.295-.676-.731c-1.433-1.552-1.722-2.702-1.068-4.247.182-.427.33-.912.33-1.077 0-.456-.667-2.603-1.288-4.145-.723-1.797-1.803-3.942-3.476-6.898-2.398-4.24-2.886-5.383-2.9-6.79-.008-.886.164-1.332.79-2.044l.37-.421-.358-1.049c-.474-1.388-.964-2.598-1.954-4.832l-.82-1.847-1.135-.673c-4.582-2.725-10.149-6.938-15.598-11.825-1.616-1.45-4.493-4.225-6.88-6.625-1.479-1.49-3.757-3.65-5.063-4.8-2.33-2.048-3.207-2.95-3.6-3.699-.109-.206-.52-.74-.915-1.187-5.077-5.75-16.495-22.59-20.308-29.95a81.534 81.534 0 0 0-.796-1.518c-.015-.017-1.365-.224-3.001-.46-1.636-.235-3.016-.475-3.066-.531-.05-.057-.298-.798-.55-1.647-.991-3.337-2.259-6.141-5.884-13.02-5.172-9.811-6.516-14.76-5.756-21.187.488-4.123 1.859-10.607 2.553-12.074.419-.885 1.388-2.077 2.874-3.538l1.385-1.365v-3.039l-3.344-.002c-4.43-.004-5.699-.194-6.629-.99-.56-.48-.664-.74-1.158-2.91a17.64 17.64 0 0 0-.705-2.25c-.976-2.405-1.037-3.338-.36-5.477.237-.747.522-1.718.634-2.16 1.004-3.949 3.538-9.94 8.438-19.947.842-1.72 1.715-3.66 1.941-4.313 1.498-4.325 2.916-7.754 4.394-10.625 3.27-6.351 5.78-10.14 8.367-12.63 1.328-1.278 2.314-1.967 3.844-2.686 2.07-.973 3.61-1.283 8.638-1.745l3.373-.309.377-.428.377-.427 1.625-.078c5.383-.258 7.323-.935 8.242-2.88.457-.964.656-2.001 1.136-5.921.242-1.97.452-3.667.468-3.77.018-.116-.054-.174-.187-.152-1.144.192-2.108-2.356-2.142-5.66-.028-2.68.364-3.287 2.215-3.425l1.017-.078.028-.937c.06-2.042.315-5.01.546-6.369.53-3.122 1.237-4.652 2.917-6.319 1.224-1.214 2.459-2.021 4.276-2.796.632-.27.98-.48.888-.536-.124-.077-10.086-.11-20.23-.104zM23.471 237.2h7.974l.197 1.095.832 4.593c.35 1.925.857 4.738 1.129 6.25.27 1.513.999 5.535 1.617 8.938.619 3.403 1.416 7.804 1.771 9.781.356 1.977.668 3.572.694 3.546.04-.039-.147-3.323-.4-7.015-.092-1.353-.174-2.74-.254-4.312-.04-.79-.095-1.775-.123-2.188s-.084-1.79-.126-3.062-.1-2.594-.13-2.938c-.03-.343-.088-3.789-.13-7.656l-.078-7.031h5.152v43.124h-7.318l-.605-3.281a10225 10225 0 0 0-1.522-8.219c-.505-2.716-1.29-6.963-1.743-9.438-1.184-6.45-1.785-9.66-2.13-11.375l-.302-1.5.059 1.188c.032.653.116 2.847.184 4.875.07 2.028.153 4.362.187 5.187.044 1.074.1 19.68.067 22.344-.002.201-.206.22-2.502.22h-2.5V237.2zm22.125 0 4.594.002c2.526 0 4.96.057 5.406.126 2.701.418 4.62 1.928 5.489 4.32.597 1.647.66 2.479.606 8.053-.042 4.307-.08 5.174-.263 5.812-.358 1.25-.83 2.081-1.636 2.876l-.762.752.696.686c.813.801 1.267 1.57 1.654 2.8.27.858.278 1.054.278 6.136 0 5.872-.011 5.971-.913 7.813-.835 1.706-2.289 2.862-4.346 3.455-.628.181-1.505.221-5.772.264l-5.031.063v-43.15zm23.136 0h8.217l.073.47c.04.257.384 3.168.765 6.468.38 3.3 1.167 10.078 1.748 15.062 2.23 19.15 2.436 20.925 2.436 21.025 0 .05-1.348.1-2.995.1h-2.994l-.065-.406c-.035-.223-.178-1.869-.318-3.656a288.472 288.472 0 0 0-.328-3.969l-.075-.719h-2.548c-2.542 0-2.548.001-2.606.282-.032.154-.177 1.8-.322 3.656s-.297 3.698-.337 4.094l-.073.718h-5.715v-.374c0-.308.855-7.556 1.689-14.314.101-.825.832-6.9 1.623-13.5 1.636-13.659 1.675-13.979 1.761-14.53l.064-.407zm3.753 4.841c-.02 0-.038.02-.06.043-.027.03-.085.56-.127 1.18s-.108 1.49-.143 1.937c-.036.447-.234 3.062-.44 5.812s-.575 7.322-.821 10.16-.421 5.227-.389 5.312c.044.113.607.153 2.127.153 1.137 0 2.1-.032 2.14-.073.04-.04-.093-1.952-.298-4.25-1.64-18.435-1.804-20.275-1.989-20.274zm-21.14.638v7.05c0 3.88.024 7.076.053 7.104s.746.033 1.594.01c1.773-.05 2.21-.195 2.633-.877l.283-.45v-5.688c0-5.463-.01-5.704-.25-6.112-.498-.845-.765-.946-2.634-.991l-1.679-.05zm0 18.864v13.28h1.475c1.783 0 2.404-.233 2.831-1.063.247-.48.257-.697.257-5.625 0-4.92-.01-5.142-.253-5.562-.412-.71-1.003-.919-2.778-.979l-1.531-.037z"/></svg>