<svg xmlns="http://www.w3.org/2000/svg" xml:space="preserve" width="286.719" height="271.679" version="1.0" style="shape-rendering:geometricPrecision;text-rendering:geometricPrecision;image-rendering:optimizeQuality;fill-rule:evenodd;clip-rule:evenodd" viewBox="0 0 2986.66 2829.99"><path d="M1140 1081.66H0c7.14 10.66 99.96 74.05 112.86 83.8l807.13 586.2c0 10.45-16.3 53.85-20.43 66.24L569.99 2831.66c23.79-12.59 406.7-294.38 461.34-332 10.37-7.14 16.56-12.62 26.74-19.93l145.24-104.76c86.51-61.02 206.7-154.19 290.02-209.98 64.68 43.31 165.46 121.11 230.02 166.64l344.24 249.09c20.04 14.98 38.09 26.89 58.13 41.87l290.94 209.06c-10.1-43.35-113.64-352.54-130.43-402.91-7.24-21.71-15.25-45.8-22.48-67.52l-197.09-609.57 112.81-83.85c112.28-82.48 235.6-167.15 346.21-250.45l404.3-292.36c12.35-9.33 49.82-33.11 56.67-43.33h-1140c-4.91-21.06-14.01-43.67-21.26-65.41-7.92-23.75-15.4-44.31-22.5-67.5l-131.65-405.02c-30.26-90.74-57.76-179.92-87.5-269.17-11.37-34.11-86.73-256.89-87.09-272.91h-6.67c-.37 16.74-34.47 111.8-42.07 134.59l-285.85 877.48c-7.47 22.41-17.02 46.22-22.07 67.92z" style="fill:#c6cfd4"/><path d="m1192.94 1154.34-968.28-.03c11.43 13.26 32.99 25.93 46.53 36.16 16.55 12.51 32.14 23.17 48.52 34.85l390.62 282.73c33.07 24.27 65.7 46.67 98.57 71.4l197.77 142.19-298.31 918.77c17.61-6.26 268.46-190.72 294.04-209.71l490.94-354.4 96.57 68.76c128.96 90.76 260.96 191.68 390.76 282.63l296.61 213.17-298.47-918.84 734.78-530.12c14-10.45 36.99-24.35 48.41-36.15l-968.1-1.5-299.09-916.13-301.87 916.21z" style="fill:#fefefe"/><path d="M388.09 1206.88c.57.86 1.53 1.01 1.89 2.44.35 1.4 1.4 1.81 1.89 2.34l676.85 491.25-260.09 800.33c15.15-6.52 32.94-21.35 45.81-30.48L982 2380.33c111.58-78.25 227.68-166.84 340.15-246.47 28.96-20.5 56.52-39.72 85.24-61.46 14.84-11.23 27.7-20.02 42.44-30.86 12.94-9.52 29.14-22.97 43.48-30.15 22.82 11.43 148.74 110.73 179.05 126.79-6.17-37.61 8.92-74.56 5.38-106.6-2.34-21.23-5.57-4.17-8.18-23.41-2.5-18.44 7.92-19.08-21.78-67.66-28.3-46.29 3.81-46.33-23.26-80.08l-68.78-51.18c-22.24-17.35-40.02-38.82-59.96-56.72-42.71-38.34-98.11-118.47-126.93-169.7-12.81-22.78-9.29-17.88-39.33-21.13-20.5-84.25-76.97-99.11-53.38-207.25 13.07-59.96 32.47-31.19 26.27-64.81l-44.59-1.54c-31.82-39-.39-96.4 17.26-134.77 13.87-30.15 45.16-104.58 58.12-125.1 33.87-53.64 42.95-52.36 116.78-63.73 39.35-6.06 40.61-.13 45.41-44.12 3.19-29.27-4.94-10.94-9.1-35.63-4.76-28.24 3.97-20.92 15.44-29.72 1.6-41.67 6.13-65.07 40.35-77.95 46.24-17.41 70.27 21.97 80.24 26.59l-127.57-395.6c-11.32 15.56-104.63 312.21-118.91 356.16-39.3 120.98-78.39 238.54-117.4 359.25-4.9 15.17-8.75 27.21-13.97 42.72-18.1 53.79 8.4 40.72-137.83 40.72H388.07z" style="fill:#164789"/><path d="M1747.12 1388.49c24.16 8.21 40.14 19.15 51.55 41.1 12.18 23.44 21.53 44.24 14.61 78.35-9.23 45.5-51.4 83.75-106.69 80.96-83.57-4.21-124.93-102.79-76.5-163.78 25.61-32.25 41.06-28.54 56.74-40.13-11.51-35.38-35.79-67.15-45.96-100.94-5.7-18.93-9.14-40.63-12.95-59.96-2.93-14.87-8.07-52.84-14.58-63.37-12.04 5.06-22.31 11.76-32.33 18.64-13.45 9.24-12.1 11.75-19.54 30.42-8.74 21.95-23.82 52.96-25.01 76.78 25.13 7.93 33 57.94 43.45 95.29 2.61 9.3 4.73 17.15 7.26 26.12 3.44 12.21 6.21 16.61 3.78 28.05-1.63 7.68-6.03-2.52 2.01 25.95 16.44 58.22 15.06 115.15 25.67 154.26 10.29 37.91 35.54 61.36 46.03 97.4 11.53 39.61 12.74 81.96 22.46 120.94 4.85 19.45 17.02 26.01 25.2 44.85 9.24 21.29-.59 38.61-4.22 60.43-6.24 37.5 11.1 71.97 12.82 91.69 2.89 33 21.73 54.7 16.17 90.02-2.41 15.31-10.22 24.4-20.32 33.39l-11.52 10.8c20.44 7.76 446.74 325.75 471.78 337.78l-259.85-800.47 675.74-489.22c5.4-5.57.81.39 5.7-6.94l-842.93-.02-119.82-366.03c-27.4 61.09.83 38.15-17.89 68.7-8.88 14.5-13.83 13.43-22.29 27.88-35.92 61.34-45.41 29.16 2.7 62.56 10.46 7.27 6.11 6.34 13.2 13.39 7.7 7.64 19.02 12.85 29.35 20.7 58.77 44.71 47.13 100.06 52.14 150.88 4.76 48.36 18.72 81.88 34.39 119.29 11.46 27.36 13.34 54.63 19.64 84.26z" style="fill:#dd1a31"/></svg>